<?xml version="1.0" standalone="no"?>
<!DOCTYPE svg PUBLIC "-//W3C//DTD SVG 20010904//EN"
 "http://www.w3.org/TR/2001/REC-SVG-20010904/DTD/svg10.dtd">
<svg version="1.0" xmlns="http://www.w3.org/2000/svg"
 width="2178.000000pt" height="560.000000pt" viewBox="0 0 2178.000000 560.000000"
 preserveAspectRatio="xMidYMid meet">

<g transform="translate(0.000000,560.000000) scale(0.100000,-0.100000)"
fill="#000000" stroke="none">
<path d="M9449 4321 c-13 -11 -56 -50 -95 -88 -119 -115 -176 -160 -284 -224
-98 -57 -117 -66 -255 -123 -22 -9 -96 -32 -164 -51 -69 -19 -128 -41 -133
-47 -13 -21 -9 -144 5 -155 6 -6 35 -14 62 -18 28 -4 68 -10 90 -14 l40 -6 6
-625 c5 -555 7 -632 23 -690 44 -162 79 -232 155 -307 58 -57 152 -118 199
-129 15 -4 32 -10 37 -14 57 -42 348 -42 450 0 11 4 43 16 70 25 171 60 372
247 439 409 23 56 20 74 -19 113 -38 38 -31 37 -162 17 -87 -13 -182 43 -217
129 -40 97 -46 183 -46 633 l0 434 228 0 c278 0 262 -8 262 133 0 92 -1 96
-27 116 -25 21 -33 21 -243 15 l-217 -7 -6 54 c-4 30 -7 86 -8 124 -1 104 -24
281 -38 299 -20 24 -121 22 -152 -3z"/>
<path d="M14073 3858 c-33 -24 -66 -47 -75 -53 -9 -5 -49 -32 -90 -60 -40 -27
-81 -54 -90 -60 -10 -5 -55 -33 -100 -61 -154 -96 -483 -264 -516 -264 -4 0
-18 -9 -30 -20 -17 -16 -22 -32 -22 -75 0 -58 16 -85 51 -85 11 0 51 -7 90
-16 l69 -16 0 -542 0 -543 -69 -16 c-38 -10 -78 -17 -89 -17 -34 0 -52 -38
-52 -105 0 -33 4 -66 9 -74 8 -12 43 -12 233 -4 125 6 385 8 593 5 204 -3 426
-6 495 -6 l125 -1 3 83 c3 99 9 95 -159 111 -63 7 -125 15 -137 18 l-22 5 0
514 0 514 41 0 c39 0 145 -45 180 -76 8 -8 18 -14 22 -14 3 0 25 -13 49 -28
68 -45 108 -57 183 -56 86 0 166 35 238 102 202 189 226 640 42 786 -71 57
-110 70 -215 70 -89 1 -100 -1 -165 -33 -115 -57 -268 -233 -335 -386 -12 -27
-28 -64 -36 -82 -8 -17 -14 -36 -14 -41 0 -6 -5 -14 -12 -18 -8 -5 -9 61 -4
268 l7 276 -34 21 c-54 33 -95 28 -164 -21z"/>
<path d="M2298 3870 c-302 -38 -569 -166 -748 -357 -85 -91 -164 -218 -202
-323 -50 -139 -53 -157 -52 -375 0 -216 7 -265 56 -395 34 -88 105 -215 146
-258 7 -8 24 -29 38 -47 33 -44 143 -132 219 -177 103 -60 233 -106 365 -129
127 -22 340 -12 465 22 77 21 170 51 180 59 6 4 21 11 35 15 41 13 170 94 243
153 85 69 161 159 211 252 38 70 38 73 23 105 -14 30 -67 65 -99 65 -8 0 -39
-17 -69 -39 -109 -77 -133 -86 -249 -86 -100 0 -108 1 -163 33 -144 82 -269
234 -382 467 -88 183 -135 340 -160 542 -14 111 -14 128 0 192 21 91 53 121
126 121 45 0 53 -4 92 -43 37 -37 167 -235 167 -255 0 -20 108 -172 158 -221
84 -84 169 -121 280 -121 95 0 159 26 222 89 63 63 80 106 80 197 -1 226 -197
418 -505 495 -92 23 -364 34 -477 19z"/>
<path d="M4461 3869 c-207 -22 -414 -94 -596 -207 -58 -36 -201 -178 -245
-242 -48 -71 -104 -189 -125 -265 -9 -33 -22 -78 -28 -100 -7 -24 -12 -116
-12 -230 0 -151 4 -204 18 -260 50 -194 142 -353 273 -474 65 -60 189 -140
269 -175 22 -10 49 -22 60 -27 44 -21 163 -51 290 -75 78 -14 380 -21 436 -9
15 3 53 9 85 14 392 62 677 242 837 532 82 148 117 299 118 504 3 511 -303
879 -826 994 -136 30 -375 38 -554 20z m70 -183 c52 -36 138 -176 170 -276 4
-14 17 -50 29 -80 50 -129 152 -496 181 -655 64 -344 73 -528 31 -626 -25 -58
-54 -79 -108 -79 -110 0 -206 152 -316 500 -61 192 -72 231 -108 390 -47 209
-50 220 -60 300 -6 41 -15 113 -21 160 -14 108 -7 252 16 308 9 23 29 51 43
62 35 28 98 26 143 -4z"/>
<path d="M16208 3870 c-591 -69 -978 -483 -978 -1045 0 -109 22 -256 55 -359
77 -246 285 -473 525 -574 164 -69 291 -95 459 -94 305 2 584 119 815 340 95
91 226 293 226 348 0 9 -15 31 -34 50 -43 43 -89 46 -132 9 -48 -42 -126 -90
-179 -111 -40 -15 -75 -19 -170 -19 -107 1 -126 3 -175 26 -156 73 -302 235
-398 440 -26 55 -72 168 -72 177 0 1 193 2 428 2 505 0 691 7 718 27 29 21 26
211 -4 308 -70 222 -244 369 -527 445 -137 37 -383 50 -557 30z m178 -149 c25
-12 50 -33 65 -57 22 -35 24 -50 24 -154 -1 -94 -4 -123 -21 -160 -48 -103
-125 -154 -256 -166 l-76 -7 -13 59 c-19 87 -17 248 4 313 16 51 53 111 87
139 25 22 93 51 120 51 14 0 43 -8 66 -18z"/>
<path d="M20048 3867 c-80 -23 -141 -74 -187 -157 -8 -14 -16 -65 -19 -116 -3
-75 -1 -99 15 -135 41 -93 110 -148 215 -174 59 -15 70 -15 133 0 87 20 151
65 188 130 50 91 60 179 29 268 -22 62 -87 136 -145 165 -58 29 -163 37 -229
19z"/>
<path d="M6035 3863 c-213 -4 -215 -4 -215 -105 0 -78 10 -94 62 -102 24 -4
67 -14 96 -22 l52 -15 0 -622 c0 -591 1 -626 20 -707 53 -219 194 -384 385
-448 168 -56 349 -60 490 -10 167 59 315 172 410 313 62 93 60 93 74 2 13 -80
33 -176 51 -248 24 -91 104 -119 226 -80 59 20 210 61 314 87 169 41 298 70
375 84 116 22 125 29 125 106 0 79 -9 90 -89 108 -38 9 -81 20 -96 26 l-26 10
4 632 c2 387 9 694 16 791 l13 158 -23 26 -24 26 -545 -7 c-441 -5 -547 -9
-558 -20 -7 -7 -16 -41 -19 -74 -7 -77 9 -107 64 -116 21 -4 62 -14 91 -22
l52 -15 0 -629 0 -628 -35 -6 c-49 -10 -151 4 -201 25 -79 35 -121 96 -149
215 -23 100 -29 408 -15 734 23 500 23 500 4 521 -16 18 -35 19 -383 17 -201
-1 -447 -4 -546 -5z"/>
<path d="M10535 3863 c-214 -4 -215 -4 -215 -108 0 -70 12 -88 70 -100 19 -4
59 -13 88 -22 l52 -14 0 -601 c0 -712 4 -751 93 -916 156 -288 587 -393 912
-223 125 65 250 177 310 280 17 28 35 52 41 55 7 3 16 -23 23 -67 23 -136 52
-259 66 -288 17 -32 71 -59 118 -59 27 0 79 13 232 60 71 21 475 116 598 140
37 8 60 18 67 30 14 27 12 123 -3 144 -8 10 -40 23 -78 31 -35 8 -77 18 -92
24 l-27 11 0 512 c0 482 11 839 29 988 10 77 -4 116 -46 126 -15 4 -266 4
-557 1 -429 -6 -533 -10 -544 -21 -7 -7 -16 -41 -19 -74 -7 -80 9 -107 69
-117 24 -4 64 -14 91 -22 l47 -15 0 -628 0 -628 -36 -7 c-20 -3 -61 -3 -92 1
-155 18 -227 89 -258 252 -18 93 -21 735 -4 928 5 65 11 158 12 205 4 139 36
129 -401 127 -201 -1 -447 -4 -546 -5z"/>
<path d="M20323 3178 c-46 -27 -148 -92 -153 -97 -3 -3 -16 -12 -30 -20 -14
-8 -61 -35 -105 -61 -81 -47 -175 -93 -297 -148 l-68 -31 0 -45 c0 -51 6 -57
75 -71 l50 -10 0 -344 c0 -383 7 -349 -75 -373 l-45 -13 -3 -56 c-2 -39 1 -58
10 -61 7 -3 81 -1 163 4 142 9 585 3 632 -8 11 -3 31 -1 42 6 40 21 22 130
-22 130 -7 0 -29 5 -49 11 l-38 10 1 477 c0 262 4 519 8 571 5 77 3 98 -9 112
-20 24 -60 32 -87 17z"/>
<path d="M18816 3159 c-58 -8 -178 -46 -246 -77 -37 -17 -135 -78 -160 -100
-105 -93 -144 -157 -144 -234 0 -52 19 -86 68 -122 42 -32 154 -30 220 4 47
24 100 79 124 130 13 27 37 137 47 213 8 57 24 67 70 43 56 -30 88 -110 99
-248 8 -89 8 -89 -96 -112 -91 -21 -150 -37 -173 -46 -11 -4 -51 -18 -90 -30
-265 -82 -353 -170 -363 -363 -6 -122 16 -197 81 -280 112 -143 354 -155 520
-25 38 30 127 139 127 155 0 5 5 14 12 21 9 9 19 -5 45 -59 39 -83 126 -176
173 -185 17 -4 33 -11 36 -15 8 -14 135 -10 179 6 99 35 150 69 263 176 66 63
73 83 46 125 -27 40 -50 48 -84 27 -37 -22 -62 -10 -71 33 -4 16 -7 171 -8
345 -1 266 -4 323 -18 365 -63 186 -215 266 -503 263 -52 -1 -121 -5 -154 -10z
m2 -659 c59 -43 72 -75 79 -195 l6 -104 -26 -12 c-22 -10 -31 -8 -61 11 -73
44 -117 130 -119 227 -1 103 43 130 121 73z"/>
<path d="M17649 2450 c-89 -16 -175 -87 -211 -174 -24 -58 -23 -188 1 -242 46
-101 135 -163 251 -173 135 -13 248 50 303 169 29 63 29 187 0 251 -59 129
-194 196 -344 169z"/>
</g>
</svg>
