<?xml version="1.0" standalone="no"?>
<!DOCTYPE svg PUBLIC "-//W3C//DTD SVG 20010904//EN"
 "http://www.w3.org/TR/2001/REC-SVG-20010904/DTD/svg10.dtd">
<svg version="1.0" xmlns="http://www.w3.org/2000/svg"
 width="640.000000pt" height="640.000000pt" viewBox="0 0 640.000000 640.000000"
 preserveAspectRatio="xMidYMid meet">

<g transform="translate(0.000000,640.000000) scale(0.100000,-0.100000)"
fill="#000000" stroke="none">
<path d="M3020 6394 c-342 -29 -570 -74 -845 -167 -1075 -363 -1879 -1271
-2105 -2377 -49 -242 -63 -381 -64 -640 -1 -385 50 -701 169 -1055 213 -632
656 -1210 1220 -1594 1078 -734 2489 -746 3565 -30 679 452 1143 1111 1340
1899 65 259 90 473 90 769 0 741 -239 1419 -708 2011 -94 118 -369 393 -480
480 -502 391 -1018 608 -1626 685 -117 15 -464 27 -556 19z m-1235 -2354 c306
-79 544 -319 626 -631 31 -118 31 -289 1 -414 -69 -279 -290 -525 -554 -616
-340 -116 -761 4 -966 277 -140 186 -209 428 -184 638 49 394 348 704 740 766
84 13 246 4 337 -20z m2295 10 c0 -10 -103 -225 -228 -477 -125 -252 -251
-511 -280 -577 l-52 -118 0 -269 0 -269 -309 0 c-272 0 -310 2 -315 16 -3 9
-6 132 -6 275 l0 259 -285 570 c-157 314 -285 577 -285 585 0 13 41 15 308 13
l307 -3 129 -255 129 -255 123 247 c72 143 133 253 146 262 19 14 65 16 320
16 290 0 298 -1 298 -20z m960 -6 c152 -38 305 -130 421 -250 118 -123 186
-250 219 -412 94 -465 -176 -901 -635 -1022 -218 -57 -450 -22 -654 97 -87 51
-220 179 -279 268 -105 156 -148 313 -139 509 6 141 25 219 78 335 111 240
329 416 586 475 37 9 77 18 88 20 40 10 252 -3 315 -20z"/>
<path d="M1470 3495 c-122 -39 -223 -199 -205 -323 15 -109 105 -223 202 -256
26 -9 77 -16 113 -16 54 0 78 6 128 31 70 35 105 71 140 147 20 45 24 65 20
130 -4 93 -32 157 -95 218 -71 69 -208 100 -303 69z"/>
<path d="M4763 3496 c-59 -19 -104 -49 -151 -100 -55 -59 -74 -107 -75 -186
-2 -128 60 -233 170 -286 67 -33 152 -37 229 -11 203 70 266 354 112 508 -69
68 -200 103 -285 75z"/>
</g>
</svg>
